<?xml version="1.0" standalone="no"?>
<!DOCTYPE svg PUBLIC "-//W3C//DTD SVG 20010904//EN"
 "http://www.w3.org/TR/2001/REC-SVG-20010904/DTD/svg10.dtd">
<svg version="1.0" xmlns="http://www.w3.org/2000/svg"
 width="726.000000pt" height="404.000000pt" viewBox="0 0 726.000000 404.000000"
 preserveAspectRatio="xMidYMid meet">

<g transform="translate(0.000000,404.000000) scale(0.100000,-0.100000)"
fill="#000000" stroke="none">
<path d="M767 2464 c-4 -4 -7 -110 -7 -236 0 -191 3 -234 16 -261 42 -83 91
-107 219 -107 l95 0 0 70 0 70 -75 0 c-109 0 -107 -3 -104 257 l3 208 -70 3
c-38 1 -73 0 -77 -4z"/>
<path d="M1150 2175 c0 -162 -1 -298 -2 -302 -2 -5 29 -9 68 -11 l71 -3 7 297
c6 243 5 298 -6 305 -7 5 -41 9 -75 9 l-63 0 0 -295z"/>
<path d="M2025 2456 c-224 -70 -294 -361 -125 -524 178 -174 474 -82 520 162
44 233 -173 432 -395 362z m180 -165 c46 -35 65 -76 65 -135 0 -90 -71 -166
-155 -166 -111 0 -193 139 -141 238 16 30 62 76 86 86 33 13 117 0 145 -23z"/>
<path d="M2643 2456 c-61 -20 -98 -50 -124 -104 -22 -44 -24 -61 -27 -274 l-4
-228 76 0 75 0 3 113 3 112 29 3 c37 5 71 -4 90 -24 12 -12 16 -37 16 -110 l0
-94 75 0 75 0 0 121 c0 120 0 121 -29 150 -16 16 -37 29 -47 29 -13 0 -9 8 18
33 68 62 68 144 1 218 -24 27 -51 44 -86 54 -60 18 -88 18 -144 1z m107 -146
c11 -11 20 -28 20 -38 0 -37 -60 -69 -107 -57 -23 5 -24 9 -19 43 12 65 66 92
106 52z"/>
<path d="M1360 2390 l0 -70 67 0 66 0 -6 -220 c-4 -121 -4 -226 -1 -235 5 -11
22 -15 74 -15 l67 0 6 83 c4 45 7 150 7 234 l0 152 63 3 62 3 3 68 3 67 -206
0 -205 0 0 -70z"/>
<path d="M3140 2445 c-49 -23 -89 -63 -113 -115 -19 -40 -21 -68 -25 -262 l-4
-218 76 0 75 0 3 108 3 107 77 3 77 3 3 -113 3 -113 70 0 70 0 8 155 c14 269
-7 359 -100 424 -35 24 -54 30 -115 33 -52 2 -83 -1 -108 -12z m153 -157 c9
-11 17 -33 17 -49 l0 -29 -74 0 c-41 0 -77 4 -81 10 -10 16 23 80 47 89 31 12
69 3 91 -21z"/>
<path d="M3583 2436 l-28 -24 0 -284 0 -283 70 0 70 0 -2 189 -1 188 94 -173
c108 -199 124 -219 171 -219 65 0 70 15 78 231 3 107 5 237 3 289 l-3 95 -70
0 -70 0 1 -167 c0 -148 -1 -164 -13 -140 -83 162 -152 278 -176 298 -38 32
-87 32 -124 0z"/>
<path d="M4420 2443 c-125 -9 -221 -64 -278 -161 -24 -42 -27 -57 -27 -137 0
-75 4 -98 23 -135 33 -62 86 -115 142 -139 45 -20 197 -44 212 -35 4 3 8 34 8
68 l0 64 -75 11 c-77 11 -118 30 -135 62 -20 36 -12 39 100 39 l110 0 0 65 0
65 -110 0 c-60 0 -110 4 -110 9 0 42 98 91 182 91 l39 0 -3 67 c-3 74 -1 72
-78 66z"/>
<path d="M4582 2213 c3 -244 6 -261 62 -321 85 -94 264 -88 340 11 50 65 56
103 56 329 l0 209 -72 -3 -73 -3 -5 -212 c-6 -241 -8 -248 -81 -248 -31 0 -45
6 -60 25 -17 23 -19 44 -19 233 l0 207 -76 0 -75 0 3 -227z"/>
<path d="M5212 2423 c-57 -20 -93 -75 -94 -142 0 -82 32 -123 154 -197 69 -42
89 -61 85 -84 -2 -12 -26 -16 -122 -20 l-120 -5 -3 -72 -3 -73 129 0 c154 0
209 15 249 66 37 50 42 118 13 180 -19 38 -37 56 -99 94 -176 111 -176 127 -1
132 l85 3 0 65 0 65 -115 2 c-82 1 -127 -3 -158 -14z"/>
<path d="M5671 1756 c-7 -9 -11 -41 -9 -83 l3 -68 418 -3 418 -2 -3 82 -3 83
-406 3 c-341 2 -408 0 -418 -12z m109 -26 c0 -5 -11 -10 -25 -10 -16 0 -25 -6
-25 -15 0 -9 10 -15 26 -15 14 0 23 -4 19 -10 -3 -5 -15 -10 -25 -10 -11 0
-20 -8 -22 -20 -2 -12 -7 -22 -13 -23 -11 -2 -20 77 -11 99 6 16 76 20 76 4z
m110 -5 c17 -21 5 -44 -29 -56 -16 -6 -32 -20 -35 -32 -5 -18 -8 -20 -16 -7
-11 17 -14 93 -3 103 12 13 71 7 83 -8z m50 -30 c0 -25 5 -45 10 -45 6 0 13
-1 18 -2 4 -2 9 17 12 41 3 25 11 46 18 49 16 5 17 -89 0 -106 -19 -19 -55
-14 -72 10 -16 23 -22 79 -9 91 16 16 23 4 23 -38z m165 35 c3 -5 -3 -10 -14
-10 -27 0 -27 -17 -1 -25 24 -8 27 -47 5 -65 -17 -14 -47 -10 -53 9 -3 9 1 11
16 7 12 -4 22 -1 25 8 7 18 -1 26 -25 26 -12 0 -18 7 -18 23 0 13 3 27 7 30
10 11 51 8 58 -3z m83 -2 c17 -17 15 -83 -3 -98 -20 -17 -52 -3 -59 26 -15 58
28 106 62 72z m82 -23 c0 -8 7 -15 15 -15 8 0 15 -4 15 -10 0 -5 -7 -10 -15
-10 -8 0 -15 -7 -15 -15 0 -21 -11 -18 -39 10 -17 18 -19 25 -8 25 8 0 17 7
21 15 3 8 10 15 16 15 5 0 10 -7 10 -15z"/>
<path d="M5830 1706 c0 -10 9 -16 21 -16 24 0 21 23 -4 28 -10 2 -17 -3 -17
-12z"/>
<path d="M6157 1714 c-10 -10 -9 -62 2 -68 5 -3 11 4 14 15 7 24 -5 63 -16 53z"/>
<path d="M4608 1723 c6 -2 18 -2 25 0 6 3 1 5 -13 5 -14 0 -19 -2 -12 -5z"/>
<path d="M780 1655 c0 -25 5 -45 10 -45 6 0 10 7 10 15 0 8 6 15 14 15 7 0 19
-7 26 -15 20 -24 25 -18 28 30 l2 45 -45 0 -45 0 0 -45z m78 18 c2 -9 -7 -13
-27 -13 -30 0 -39 9 -24 24 11 10 46 3 51 -11z"/>
<path d="M920 1655 l0 -45 50 0 c44 0 50 3 56 24 3 14 3 34 -1 45 -5 18 -15
21 -56 21 l-49 0 0 -45z m85 16 c9 -31 -5 -52 -33 -49 -33 4 -50 31 -33 52 18
22 58 20 66 -3z"/>
<path d="M1072 1658 l3 -43 45 0 45 0 3 43 c2 23 -1 42 -7 42 -5 0 -11 -17
-13 -37 -3 -33 -6 -38 -28 -38 -22 0 -25 5 -28 38 -2 20 -8 37 -13 37 -6 0 -9
-19 -7 -42z"/>
<path d="M1220 1653 c0 -46 1 -47 16 -25 10 14 25 22 45 22 26 0 30 3 27 23
-2 18 -10 23 -45 25 l-43 3 0 -48z m70 22 c0 -9 -9 -15 -25 -15 -16 0 -25 6
-25 15 0 9 9 15 25 15 16 0 25 -6 25 -15z"/>
<path d="M1351 1664 c-24 -40 -29 -66 -9 -46 15 15 51 15 66 0 6 -6 14 -9 18
-6 7 8 -34 88 -45 88 -5 0 -18 -16 -30 -36z m39 -9 c0 -8 -4 -15 -9 -15 -13 0
-22 16 -14 24 11 11 23 6 23 -9z"/>
<path d="M1477 1693 c-4 -3 -7 -14 -7 -24 0 -13 9 -19 33 -21 42 -4 32 -24
-11 -21 -19 2 -30 -2 -27 -7 3 -6 26 -10 51 -10 40 0 44 2 44 25 0 22 -4 25
-35 25 -26 0 -35 4 -35 16 0 13 7 15 36 9 24 -4 34 -3 29 4 -7 12 -68 15 -78
4z"/>
<path d="M1674 1686 c-3 -8 -4 -27 -2 -43 3 -26 6 -28 48 -30 39 -1 41 0 12 5
-36 8 -43 22 -15 33 17 7 17 8 1 8 -32 2 -20 30 15 34 27 3 26 4 -11 5 -29 1
-44 -3 -48 -12z"/>
<path d="M1882 1659 c-13 -23 -20 -45 -16 -48 4 -3 9 0 11 7 6 14 59 16 68 2
3 -5 11 -10 16 -10 13 0 -32 82 -47 87 -5 2 -20 -15 -32 -38z m41 -12 c-3 -5
-10 -4 -15 1 -6 6 -7 16 -3 22 6 9 9 9 16 -1 4 -7 5 -17 2 -22z"/>
<path d="M2004 1686 c-3 -8 -4 -27 -2 -43 3 -25 7 -28 46 -31 33 -2 42 0 42
13 0 12 -3 13 -19 4 -26 -17 -51 -4 -51 26 0 30 25 43 51 26 15 -9 19 -8 19 4
0 20 -78 21 -86 1z"/>
<path d="M2140 1655 l0 -45 43 1 c37 1 39 2 13 8 -33 7 -37 22 -10 31 15 6 14
8 -6 13 -29 7 -18 23 20 30 16 3 10 5 -17 6 l-43 1 0 -45z"/>
<path d="M2277 1693 c-4 -3 -7 -14 -7 -24 0 -13 9 -19 38 -21 46 -4 44 -23 -3
-22 -19 1 -35 -3 -35 -8 0 -5 21 -8 48 -6 39 3 47 6 47 23 0 15 -8 21 -33 25
-39 6 -39 26 1 24 15 -1 27 2 27 7 0 10 -73 12 -83 2z"/>
<path d="M2410 1675 c0 -22 4 -25 35 -25 26 0 35 -4 35 -16 0 -13 -7 -15 -35
-11 -19 3 -35 2 -35 -4 0 -5 20 -9 45 -9 41 0 45 2 45 25 0 22 -4 25 -35 25
-26 0 -35 4 -35 16 0 13 7 15 35 11 21 -3 33 -2 30 4 -4 5 -24 9 -46 9 -35 0
-39 -3 -39 -25z"/>
<path d="M2544 1676 c-12 -50 -3 -61 54 -64 l52 -3 0 45 0 46 -50 0 c-44 0
-50 -3 -56 -24z m87 -2 c18 -21 0 -48 -35 -52 -24 -3 -26 0 -26 32 0 31 3 36
24 36 13 0 29 -7 37 -16z"/>
<path d="M2700 1653 c1 -44 2 -46 15 -29 13 18 16 18 39 2 31 -20 42 -21 27
-2 -8 10 -9 16 -1 21 5 3 10 17 10 31 0 22 -4 24 -45 24 l-45 0 0 -47z m70 22
c0 -9 -9 -15 -25 -15 -24 0 -32 10 -18 23 12 13 43 7 43 -8z"/>
<path d="M2840 1655 c0 -28 4 -44 10 -40 6 3 10 21 10 40 0 19 -4 37 -10 40
-6 4 -10 -12 -10 -40z"/>
<path d="M2904 1686 c-3 -8 -4 -27 -2 -43 3 -26 6 -28 56 -31 l53 -3 -3 43 -3
43 -48 3 c-34 2 -49 -1 -53 -12z m81 -31 c0 -27 -3 -30 -30 -30 -21 0 -31 5
-33 18 -6 33 6 49 35 45 24 -3 28 -8 28 -33z"/>
<path d="M3060 1676 c0 -21 6 -25 33 -28 43 -4 32 -24 -12 -21 -25 2 -32 0
-24 -8 6 -6 28 -9 49 -7 32 2 40 7 42 26 3 19 -1 22 -32 22 -27 0 -36 4 -36
16 0 13 7 15 30 11 17 -4 30 -2 30 3 0 6 -18 10 -40 10 -36 0 -40 -3 -40 -24z"/>
<path d="M3264 1686 c-3 -8 -4 -27 -2 -43 3 -24 8 -28 36 -31 40 -4 66 4 57
18 -4 6 -12 6 -24 -2 -26 -16 -51 -3 -51 27 0 30 25 43 51 27 17 -11 35 -2 22
12 -13 12 -84 6 -89 -8z"/>
<path d="M3407 1694 c-4 -4 -7 -25 -7 -46 l0 -39 53 3 52 3 0 40 0 40 -45 3
c-25 2 -49 0 -53 -4z m78 -39 c0 -27 -3 -30 -30 -30 -21 0 -31 5 -33 18 -6 33
6 49 35 45 24 -3 28 -8 28 -33z"/>
<path d="M3558 1694 c-3 -5 -2 -27 2 -49 7 -36 8 -37 9 -10 l2 30 18 -22 c16
-20 21 -21 31 -8 17 21 30 19 30 -5 0 -11 5 -20 10 -20 6 0 10 20 10 45 0 52
-10 56 -39 18 l-20 -28 -24 29 c-13 16 -26 25 -29 20z"/>
<path d="M3780 1655 c0 -46 14 -61 23 -25 4 15 14 20 36 20 26 0 31 4 31 25 0
23 -4 25 -45 25 l-45 0 0 -45z m78 18 c2 -9 -7 -13 -27 -13 -30 0 -39 9 -24
24 11 10 46 3 51 -11z"/>
<path d="M3910 1655 c0 -25 5 -45 10 -45 6 0 10 7 10 15 0 8 5 15 11 15 6 0
17 -7 25 -15 20 -19 41 -20 25 -1 -8 10 -9 16 -1 21 5 3 10 17 10 31 0 22 -4
24 -45 24 l-45 0 0 -45z m68 18 c2 -8 -6 -13 -22 -13 -17 0 -26 5 -26 16 0 19
41 16 48 -3z"/>
<path d="M4050 1655 l0 -45 50 0 50 0 0 45 0 45 -50 0 -50 0 0 -45z m80 0 c0
-30 -3 -35 -22 -35 -37 0 -51 15 -44 44 5 21 12 26 36 26 28 0 30 -3 30 -35z"/>
<path d="M4198 1690 c17 -7 22 -17 22 -45 0 -19 5 -35 10 -35 6 0 10 16 10 35
0 28 5 38 23 45 17 7 10 9 -33 9 -43 0 -50 -2 -32 -9z"/>
<path d="M4310 1655 l0 -45 43 1 c37 1 38 2 13 8 -34 7 -45 27 -19 34 17 4 17
5 1 6 -32 2 -20 30 15 34 28 3 26 4 -10 5 l-43 2 0 -45z"/>
<path d="M4440 1656 c0 -32 4 -46 14 -46 7 0 19 -7 27 -16 10 -13 10 -17 -2
-25 -11 -7 -10 -9 5 -9 13 0 17 5 13 20 -3 13 1 21 14 25 10 4 19 13 19 21 0
17 -12 18 -27 3 -18 -18 -43 -2 -43 26 0 31 20 41 50 25 18 -10 21 -9 18 2 -3
7 -22 14 -46 16 l-42 3 0 -45z"/>
<path d="M4606 1693 c-8 -8 -36 -71 -36 -81 0 -3 5 -1 12 6 16 16 65 15 71 0
2 -7 7 -10 11 -6 9 7 -31 88 -43 88 -4 0 -11 -3 -15 -7z m24 -31 c0 -13 -12
-22 -22 -16 -10 6 -1 24 13 24 5 0 9 -4 9 -8z"/>
<path d="M4710 1655 l0 -46 53 3 52 3 0 40 0 40 -52 3 -53 3 0 -46z m85 16
c10 -31 -5 -52 -34 -49 -26 3 -38 26 -27 54 8 21 53 18 61 -5z"/>
<path d="M4937 1693 c-4 -3 -7 -14 -7 -24 0 -13 9 -19 38 -21 50 -4 42 -24 -9
-21 -22 1 -37 -2 -34 -8 4 -5 26 -9 51 -9 40 0 44 2 44 25 0 22 -4 25 -35 25
-26 0 -35 4 -35 16 0 13 7 15 35 11 19 -3 35 -2 35 4 0 10 -73 13 -83 2z"/>
<path d="M5070 1654 l0 -45 52 3 c57 3 66 14 54 64 -6 21 -12 24 -56 24 l-50
0 0 -46z m80 0 c0 -33 -2 -35 -27 -32 -47 5 -45 68 2 68 22 0 25 -4 25 -36z"/>
<path d="M5220 1655 l0 -45 43 1 c38 1 39 2 12 8 -26 5 -30 11 -33 44 -4 52
-22 46 -22 -8z"/>
<path d="M5356 1678 c-8 -13 -17 -34 -21 -48 -6 -20 -5 -23 6 -12 16 15 51 16
67 0 22 -22 23 0 2 41 -23 47 -34 50 -54 19z m28 -29 c-3 -5 -10 -7 -15 -3 -5
3 -7 10 -3 15 3 5 10 7 15 3 5 -3 7 -10 3 -15z"/>
<path d="M5470 1653 c1 -44 2 -46 15 -29 13 18 16 18 39 2 31 -20 42 -21 27
-2 -8 10 -9 16 -1 21 5 3 10 17 10 31 0 22 -4 24 -45 24 l-45 0 0 -47z m70 22
c0 -9 -9 -15 -25 -15 -24 0 -32 10 -18 23 12 13 43 7 43 -8z"/>
</g>
</svg>
